HIERARCHY
ROOT Hips
{
	OFFSET 0.000000 0.000000 0.000000
	CHANNELS 6 Xposition Yposition Zposition Xrotation Yrotation Zrotation
	JOINT LeftUpLeg_virtual
	{
		OFFSET 0.000000 0.000000 0.000000
		CHANNELS 3 Xrotation Yrotation Zrotation
		JOINT LeftUpLeg
		{
			OFFSET 10.205400 -3.823500 0.155100
			CHANNELS 3 Xrotation Yrotation Zrotation
			JOINT LeftLeg
			{
				OFFSET 0.708757 -12.982077 0.567790
				CHANNELS 3 Xrotation Yrotation Zrotation
				JOINT LeftFoot
				{
					OFFSET -0.708756 -10.717838 -2.184338
					CHANNELS 3 Xrotation Yrotation Zrotation
					JOINT LeftToeBase
					{
						OFFSET 0.108149 -7.191104 7.560241
						CHANNELS 3 Xrotation Yrotation Zrotation
						JOINT LeftToe_End
						{
							OFFSET 0.070230 0.081724 4.490308
							CHANNELS 3 Xrotation Yrotation Zrotation
							End Site
							{
								OFFSET 0 0 0
							}
						}
					}
				}
			}
		}
	}
	JOINT RightUpLeg_virtual
	{
		OFFSET 0.000000 0.000000 0.000000
		CHANNELS 3 Xrotation Yrotation Zrotation
		JOINT RightUpLeg
		{
			OFFSET -10.205400 -3.823500 0.005500
			CHANNELS 3 Xrotation Yrotation Zrotation
			JOINT RightLeg
			{
				OFFSET -0.708756 -12.982134 0.610632
				CHANNELS 3 Xrotation Yrotation Zrotation
				JOINT RightFoot
				{
					OFFSET 0.708754 -10.717769 -1.945823
					CHANNELS 3 Xrotation Yrotation Zrotation
					JOINT RightToeBase
					{
						OFFSET -0.108140 -7.191069 7.372968
						CHANNELS 3 Xrotation Yrotation Zrotation
						JOINT RightToe_End
						{
							OFFSET -0.070227 0.081735 4.479403
							CHANNELS 3 Xrotation Yrotation Zrotation
							End Site
							{
								OFFSET 0 0 0
							}
						}
					}
				}
			}
		}
	}
	JOINT Spine_virtual
	{
		OFFSET 0.000000 0.000000 0.000000
		CHANNELS 3 Xrotation Yrotation Zrotation
		JOINT Spine
		{
			OFFSET 0.000000 6.876099 0.125700
			CHANNELS 3 Xrotation Yrotation Zrotation
			JOINT Spine1
			{
				OFFSET 0.000000 5.730043 0.104720
				CHANNELS 3 Xrotation Yrotation Zrotation
				JOINT Spine1_split
				{
					OFFSET 0.000000 5.730043 0.104720
					CHANNELS 3 Xrotation Yrotation Zrotation
					JOINT Spine2
					{
						OFFSET 0.000000 5.730043 0.104720
						CHANNELS 3 Xrotation Yrotation Zrotation
						JOINT Neck_virtual
						{
							OFFSET 0.000000 0.000000 0.000000
							CHANNELS 3 Xrotation Yrotation Zrotation
							JOINT Neck
							{
								OFFSET 0.000000 10.314075 0.188496
								CHANNELS 3 Xrotation Yrotation Zrotation
								JOINT Head
								{
									OFFSET 0.000000 7.643700 -2.377400
									CHANNELS 3 Xrotation Yrotation Zrotation
									JOINT HeadTop_End
									{
										OFFSET 0.000000 43.788605 -13.619600
										CHANNELS 3 Xrotation Yrotation Zrotation
										End Site
										{
											OFFSET 0 0 0
										}
									}
								}
							}
						}
						JOINT LeftShoulder_virtual
						{
							OFFSET 0.000000 0.000000 0.000000
							CHANNELS 3 Xrotation Yrotation Zrotation
							JOINT LeftShoulder
							{
								OFFSET 2.196100 4.412489 0.087492
								CHANNELS 3 Xrotation Yrotation Zrotation
								JOINT LeftShoulder_split
								{
									OFFSET 2.196100 4.412489 0.087492
									CHANNELS 3 Xrotation Yrotation Zrotation
									JOINT LeftArm
									{
										OFFSET 8.771219 -2.981674 -0.026999
										CHANNELS 3 Xrotation Yrotation Zrotation
										JOINT LeftForeArm
										{
											OFFSET 8.512804 0.000000 -0.000000
											CHANNELS 3 Xrotation Yrotation Zrotation
											JOINT LeftHand
											{
												OFFSET 18.484802 0.000000 -0.000000
												CHANNELS 3 Xrotation Yrotation Zrotation
												End Site
												{
													OFFSET 0 0 0
												}
											}
										}
									}
								}
							}
						}
						JOINT RightShoulder_virtual
						{
							OFFSET 0.000000 0.000000 0.000000
							CHANNELS 3 Xrotation Yrotation Zrotation
							JOINT RightShoulder
							{
								OFFSET -2.196100 4.412496 0.070690
								CHANNELS 3 Xrotation Yrotation Zrotation
								JOINT RightShoulder_split
								{
									OFFSET -2.196100 4.412496 0.070690
									CHANNELS 3 Xrotation Yrotation Zrotation
									JOINT RightArm
									{
										OFFSET -8.771282 -2.981682 -0.094208
										CHANNELS 3 Xrotation Yrotation Zrotation
										JOINT RightForeArm
										{
											OFFSET -8.494598 0.000000 0.000000
											CHANNELS 3 Xrotation Yrotation Zrotation
											JOINT RightHand
											{
												OFFSET -18.483803 0.000000 0.000001
												CHANNELS 3 Xrotation Yrotation Zrotation
												End Site
												{
													OFFSET 0 0 0
												}
											}
										}
									}
								}
							}
						}
					}
				}
			}
		}
	}
}
MOTION
Frames: 7
Frame Time: 0.03333333
0.491790 32.384529 -20.748041 0.000000 0.000000 0.000000 173.928199 -67.812775 176.749122 -25.293280 10.250498 20.939745 35.606862 -1.894883 -4.786879 -12.768157 -0.108972 -4.926446 1.647537 5.043687 -6.900692 0.000000 0.000000 0.000000 173.598506 -65.787228 176.491733 1.457432 -9.035679 11.609098 16.436123 11.808750 1.773845 -22.164710 2.456986 -7.299964 0.980472 -7.487740 -2.159754 0.000000 0.000000 0.000000 171.377205 -66.844227 172.558842 3.925188 1.930903 3.249854 -3.401678 1.351642 -2.334585 0.653387 -1.323567 0.242484 0.000000 0.000000 0.000000 -5.042128 1.609188 -1.997732 1.698754 19.610434 7.590639 5.280114 27.515504 -15.371237 0.000000 0.000000 0.000000 -5.231335 2.174658 -2.222950 0.854668 0.661524 1.095099 -0.436337 -0.778395 -0.599048 12.746359 0.364989 -66.932835 7.868954 -21.281287 -8.077859 0.000000 0.000000 0.000000 -4.524657 1.841988 -2.736744 2.707598 -5.474575 17.953849 -4.658998 -1.017533 -0.726205 10.571118 33.237958 53.869975 14.938466 29.841756 -1.341513 0.000000 0.000000 0.000000 
0.207523 32.543724 -21.297945 0.000000 0.000000 0.000000 173.625690 -62.627630 176.472458 -25.106749 2.854354 15.730914 35.883311 -1.774440 -4.138789 -12.585243 0.544554 -5.075076 0.535017 5.619277 -7.120446 0.000000 0.000000 0.000000 173.430961 -59.914925 176.417721 2.330064 -6.701984 13.169931 16.691659 14.857002 2.965578 -22.010966 1.950679 -8.797714 -0.473908 -7.453951 -2.639339 0.000000 0.000000 0.000000 172.112585 -61.181904 173.074070 4.417212 2.524912 3.019524 -3.327571 1.830826 -2.444497 0.634790 -1.196605 0.339850 0.000000 0.000000 0.000000 -4.995924 2.038968 -2.168103 1.344120 17.863834 7.612207 4.457910 25.044168 -14.155958 0.000000 0.000000 0.000000 -5.270503 2.619592 -2.324993 0.739690 0.550725 1.423678 -0.182475 -0.815792 -0.437465 13.788596 1.220492 -68.554096 8.912576 -20.286842 -8.173560 0.000000 0.000000 0.000000 -4.475633 2.253013 -2.872203 2.704847 -5.724619 18.134089 -4.591719 -1.340494 -0.620325 9.583545 35.439803 54.010093 15.167516 28.830782 -1.751779 0.000000 0.000000 0.000000 
-0.128126 32.719276 -21.836767 0.000000 0.000000 0.000000 173.203926 -57.408833 176.041378 -25.917564 -3.982815 10.893202 35.087365 -2.459886 -3.333692 -11.646839 0.797766 -6.804408 -1.004050 6.182420 -7.311836 0.000000 0.000000 0.000000 173.363766 -54.082777 176.495817 3.480549 -4.635814 14.513647 17.256893 17.561036 4.192529 -21.783560 1.373925 -10.519716 -1.623759 -7.435294 -2.836133 0.000000 0.000000 0.000000 172.699571 -55.635139 173.544684 4.861208 3.010554 2.502665 -3.126130 2.207586 -2.332069 0.685245 -0.867726 0.346691 0.000000 0.000000 0.000000 -4.835368 2.392354 -2.136249 1.078756 15.800951 7.201903 3.111195 21.652166 -12.264586 0.000000 0.000000 0.000000 -5.199670 2.979165 -2.182164 0.624195 0.434679 1.699233 0.086057 -0.968980 -0.403670 14.548322 1.788776 -70.144281 9.620018 -18.438733 -8.402944 0.000000 0.000000 0.000000 -4.323902 2.575547 -2.770396 2.730964 -6.036460 18.091598 -4.507058 -1.598685 -0.434961 8.442737 37.852645 54.454486 15.226109 27.544932 -2.119907 0.000000 0.000000 0.000000 
-0.515723 32.848705 -22.366716 0.000000 0.000000 0.000000 173.089384 -52.023837 175.980685 -27.458499 -9.423429 6.866783 33.557286 -3.717020 -2.642621 -10.062021 0.693547 -9.484127 -2.276945 6.665194 -7.605413 0.000000 0.000000 0.000000 173.465659 -48.395876 176.669796 4.706294 -2.938295 15.695541 18.038292 20.118990 5.301619 -21.136802 0.827546 -12.194107 -2.886407 -7.359437 -2.994508 0.000000 0.000000 0.000000 173.331008 -50.376818 174.211338 5.296549 3.359438 1.803593 -2.819638 2.462747 -2.025712 0.860947 -0.330623 0.234251 0.000000 0.000000 0.000000 -4.560037 2.649945 -1.924926 1.012548 13.441700 6.402239 1.515323 17.460808 -9.949510 0.000000 0.000000 0.000000 -5.019905 3.241392 -1.829643 0.518877 0.378616 1.889182 0.407375 -1.269902 -0.493414 15.153034 2.202082 -71.502785 9.942012 -16.323548 -8.735147 0.000000 0.000000 0.000000 -4.077955 2.800877 -2.472698 2.787560 -6.401874 17.758560 -4.357775 -1.722686 -0.159648 7.224769 40.238502 55.238800 15.153333 26.372593 -2.490909 0.000000 0.000000 0.000000 
-0.920633 32.919899 -22.977598 0.000000 0.000000 0.000000 173.266272 -46.492824 176.267580 -29.543471 -13.048365 3.777760 31.884805 -5.027782 -2.292030 -8.011483 0.557297 -12.072169 -2.317403 6.981799 -8.199287 0.000000 0.000000 0.000000 173.736653 -43.085889 176.824705 5.824718 -1.598398 16.619544 18.611188 22.664410 6.177538 -20.020324 0.581146 -13.647989 -4.281848 -7.031989 -3.338119 0.000000 0.000000 0.000000 174.002921 -45.419597 174.975363 5.741842 3.580281 1.110537 -2.450805 2.604757 -1.603897 0.839329 0.383511 0.116663 0.000000 0.000000 0.000000 -4.208732 2.805648 -1.594402 1.169032 10.861544 5.349088 -0.013184 12.738115 -7.489686 0.000000 0.000000 0.000000 -4.729036 3.415049 -1.355790 0.441960 0.450885 1.945069 0.754015 -1.732302 -0.669180 15.770482 2.557789 -72.476640 9.964872 -14.638514 -9.087137 0.000000 0.000000 0.000000 -3.750844 2.926958 -2.067747 2.873309 -6.803983 17.145011 -4.101814 -1.707871 0.144148 6.058339 42.386887 56.276606 14.992796 25.611905 -2.910673 0.000000 0.000000 0.000000 
-1.304635 32.957554 -23.627943 0.000000 0.000000 0.000000 173.632069 -41.050017 176.745734 -31.890344 -14.877619 1.595395 30.402944 -6.038807 -2.275804 -5.890934 0.651221 -14.043870 -0.912165 7.089030 -9.123356 0.000000 0.000000 0.000000 174.036908 -38.276824 176.794447 6.800686 -0.693875 17.174750 18.548019 25.161483 6.857198 -18.569980 0.892023 -15.038268 -5.662182 -6.317425 -3.784737 0.000000 0.000000 0.000000 174.680599 -40.800214 175.768703 6.224290 3.688939 0.574117 -2.056564 2.655140 -1.157917 0.673233 1.014483 -0.034112 0.000000 0.000000 0.000000 -3.815440 2.868130 -1.232552 1.536194 8.218412 4.202025 -1.250217 7.783280 -5.096668 0.000000 0.000000 0.000000 -4.367263 3.497822 -0.877825 0.389531 0.677433 1.832959 1.209905 -2.302981 -0.822216 16.488215 2.946353 -72.993439 9.829729 -13.844479 -9.371971 0.000000 0.000000 0.000000 -3.394222 2.964980 -1.659907 2.941917 -7.205884 16.311820 -3.745514 -1.528861 0.515307 5.027313 44.182455 57.411121 14.771503 25.324858 -3.372596 0.000000 0.000000 0.000000 
-1.657694 32.968071 -24.443945 0.000000 0.000000 0.000000 174.030829 -36.045459 177.237849 -34.126979 -14.936411 0.291548 29.180317 -6.522655 -2.565789 -4.204213 0.981743 -14.932226 0.813228 7.002696 -9.959021 0.000000 0.000000 0.000000 174.339404 -33.809068 176.703073 7.718338 -0.360581 17.151262 18.154720 27.650849 7.369379 -17.134414 1.873618 -16.686014 -6.760747 -5.190755 -4.162028 0.000000 0.000000 0.000000 175.254280 -36.520359 176.382423 6.757714 3.714292 0.235487 -1.679020 2.632380 -0.786590 0.473793 1.331773 -0.179243 0.000000 0.000000 0.000000 -3.410751 2.846758 -0.911085 2.021080 5.670100 3.114008 -2.082207 3.007540 -2.935274 0.000000 0.000000 0.000000 -3.979997 3.503101 -0.501475 0.364525 0.969449 1.555333 1.761463 -2.773999 -0.977831 17.236291 3.344477 -73.088960 9.692731 -13.919474 -9.544650 0.000000 0.000000 0.000000 -3.045128 2.933722 -1.332210 2.960758 -7.550603 15.413345 -3.341568 -1.244068 0.939140 4.303912 45.610675 58.423061 14.544895 25.480847 -3.891024 0.000000 0.000000 0.000000 
